<?xml version="1.0" encoding="UTF-8"?>
<!DOCTYPE svg PUBLIC "-//W3C//DTD SVG 1.1//EN" "http://www.w3.org/Graphics/SVG/1.1/DTD/svg11.dtd">
<!-- Creator: CorelDRAW 2021.5 -->
<svg xmlns="http://www.w3.org/2000/svg" xml:space="preserve" width="156.859mm" height="156.859mm" version="1.1" style="shape-rendering:geometricPrecision; text-rendering:geometricPrecision; image-rendering:optimizeQuality; fill-rule:evenodd; clip-rule:evenodd"
viewBox="0 0 15685.9 15685.9"
 xmlns:xlink="http://www.w3.org/1999/xlink"
 xmlns:xodm="http://www.corel.com/coreldraw/odm/2003">
 <defs>
  <style type="text/css">
   <![CDATA[
    .fil0 {fill:white;fill-rule:nonzero}
   ]]>
  </style>
 </defs>
 <g id="Слой_x0020_1">
  <metadata id="CorelCorpID_0Corel-Layer"/>
  <path class="fil0" d="M7842.95 9660.46c-1936.01,0 -3516.49,-1580.48 -3516.49,-3516.49 0,-1936.01 1580.48,-3516.49 3516.49,-3516.49 1936.01,0 3516.49,1580.48 3516.49,3516.49 0,1936.01 -1580.48,3516.49 -3516.49,3516.49zm0 6025.44c-4326.47,0 -7842.95,-3516.49 -7842.95,-7842.95 0,-4326.46 3516.49,-7842.95 7842.95,-7842.95 4326.46,0 7842.95,3516.49 7842.95,7842.95 0,4326.46 -3516.49,7842.95 -7842.95,7842.95zm0 -14500.58c-3674.53,0 -6657.62,2983.05 -6657.62,6657.62 0,1442.87 460.07,2779.03 1241.27,3869.88 693.37,-981.5 1753.92,-1622.58 2927,-1795.61 217.32,-39.55 434.62,19.71 632.25,158.06 533.44,395.08 1165.54,592.7 1837.2,592.7 671.66,0 1303.9,-197.61 1837.2,-592.7 177.77,-138.36 395.08,-197.61 632.25,-158.06 1184.1,155.31 2253.77,825.53 2946.54,1823.4 793.37,-1095.94 1261.53,-2442.47 1261.53,-3897.67 0,-3674.57 -2983.05,-6657.62 -6657.62,-6657.62zm-4608.93 11459.93c1196.57,1148.74 2820.79,1855.31 4608.93,1855.31 1775.3,0 3389.09,-696.39 4583.15,-1830.56 -42.67,-78.05 -87.88,-153.58 -138.19,-223.97 -474.17,-711.2 -1205.09,-1185.4 -2034.82,-1343.31 -711.2,493.89 -1560.62,750.75 -2429.9,750.75 -869.28,0 -1718.7,-256.86 -2429.9,-750.75 -829.73,158.06 -1560.62,632.25 -2034.82,1343.31 -44.97,62.97 -85.82,129.98 -124.45,199.22zm2060.46 -1621.62c0,0 19.71,0 0,0 19.71,0 0,0 0,0zm2548.47 -7210.82c-1284.04,0 -2331.08,1047.04 -2331.08,2331.08 0,1284.04 1047.04,2331.23 2331.08,2331.23 1284.04,0 2331.08,-1047.04 2331.08,-2331.08 0,-1284.18 -1047.04,-2331.23 -2331.08,-2331.23z"/>
 </g>
</svg>
